<svg xmlns="http://www.w3.org/2000/svg" viewBox="0 0 1600 1000"><defs><pattern id="grid" width="28" height="28" patternUnits="userSpaceOnUse"><circle cx="1" cy="1" r="1" fill="rgba(255,255,255,0.04)"/></pattern><radialGradient id="halo"><stop stop-color="#00d4ff" stop-opacity=".16"/><stop offset="1" stop-color="#00d4ff" stop-opacity="0"/></radialGradient></defs><path fill="#09090b" d="M0 0h1600v1000H0z"/><path fill="url(#grid)" d="M0 0h1600v1000H0z"/><line x1="500" y1="500" x2="800" y2="328.57142857142856" stroke="#0ea5c4" stroke-width="1" opacity=".35"/><line x1="500" y1="500" x2="800" y2="500" stroke="#0ea5c4" stroke-width="1" opacity=".35"/><line x1="500" y1="500" x2="800" y2="671.4285714285714" stroke="#0ea5c4" stroke-width="1" opacity=".35"/><line x1="800" y1="328.57142857142856" x2="1025" y2="275" stroke="#0ea5c4" stroke-width="1" opacity=".35"/><line x1="800" y1="328.57142857142856" x2="1100" y2="350" stroke="#0ea5c4" stroke-width="1" opacity=".35"/><line x1="800" y1="328.57142857142856" x2="1025" y2="425" stroke="#0ea5c4" stroke-width="1" opacity=".35"/><line x1="800" y1="328.57142857142856" x2="1100" y2="500" stroke="#0ea5c4" stroke-width="1" opacity=".35"/><line x1="800" y1="328.57142857142856" x2="1025" y2="575" stroke="#0ea5c4" stroke-width="1" opacity=".35"/><line x1="800" y1="328.57142857142856" x2="1100" y2="650" stroke="#0ea5c4" stroke-width="1" opacity=".35"/><line x1="800" y1="328.57142857142856" x2="1025" y2="725" stroke="#0ea5c4" stroke-width="1" opacity=".35"/><line x1="800" y1="500" x2="1025" y2="275" stroke="#0ea5c4" stroke-width="1" opacity=".35"/><line x1="800" y1="500" x2="1100" y2="350" stroke="#0ea5c4" stroke-width="1" opacity=".35"/><line x1="800" y1="500" x2="1025" y2="425" stroke="#0ea5c4" stroke-width="1" opacity=".35"/><line x1="800" y1="500" x2="1100" y2="500" stroke="#0ea5c4" stroke-width="1" opacity=".35"/><line x1="800" y1="500" x2="1025" y2="575" stroke="#0ea5c4" stroke-width="1" opacity=".35"/><line x1="800" y1="500" x2="1100" y2="650" stroke="#0ea5c4" stroke-width="1" opacity=".35"/><line x1="800" y1="500" x2="1025" y2="725" stroke="#0ea5c4" stroke-width="1" opacity=".35"/><line x1="800" y1="671.4285714285714" x2="1025" y2="275" stroke="#0ea5c4" stroke-width="1" opacity=".35"/><line x1="800" y1="671.4285714285714" x2="1100" y2="350" stroke="#0ea5c4" stroke-width="1" opacity=".35"/><line x1="800" y1="671.4285714285714" x2="1025" y2="425" stroke="#0ea5c4" stroke-width="1" opacity=".35"/><line x1="800" y1="671.4285714285714" x2="1100" y2="500" stroke="#0ea5c4" stroke-width="1" opacity=".35"/><line x1="800" y1="671.4285714285714" x2="1025" y2="575" stroke="#0ea5c4" stroke-width="1" opacity=".35"/><line x1="800" y1="671.4285714285714" x2="1100" y2="650" stroke="#0ea5c4" stroke-width="1" opacity=".35"/><line x1="800" y1="671.4285714285714" x2="1025" y2="725" stroke="#0ea5c4" stroke-width="1" opacity=".35"/><circle cx="500" cy="500" r="114" fill="url(#halo)"/><circle cx="500" cy="500" r="38" fill="#e6fdff" stroke="#0ea5c4"/><circle cx="800" cy="328.57142857142856" r="61.71428571428571" fill="url(#halo)"/><circle cx="800" cy="328.57142857142856" r="20.57142857142857" fill="#e6fdff" stroke="#0ea5c4"/><circle cx="800" cy="500" r="61.71428571428571" fill="url(#halo)"/><circle cx="800" cy="500" r="20.57142857142857" fill="#e6fdff" stroke="#0ea5c4"/><circle cx="800" cy="671.4285714285714" r="61.71428571428571" fill="url(#halo)"/><circle cx="800" cy="671.4285714285714" r="20.57142857142857" fill="#e6fdff" stroke="#0ea5c4"/><circle cx="1025" cy="275" r="54" fill="url(#halo)"/><circle cx="1025" cy="275" r="18" fill="#1b1b22" stroke="#0ea5c4"/><circle cx="1100" cy="350" r="54" fill="url(#halo)"/><circle cx="1100" cy="350" r="18" fill="#1b1b22" stroke="#0ea5c4"/><circle cx="1025" cy="425" r="54" fill="url(#halo)"/><circle cx="1025" cy="425" r="18" fill="#1b1b22" stroke="#0ea5c4"/><circle cx="1100" cy="500" r="54" fill="url(#halo)"/><circle cx="1100" cy="500" r="18" fill="#1b1b22" stroke="#0ea5c4"/><circle cx="1025" cy="575" r="54" fill="url(#halo)"/><circle cx="1025" cy="575" r="18" fill="#1b1b22" stroke="#0ea5c4"/><circle cx="1100" cy="650" r="54" fill="url(#halo)"/><circle cx="1100" cy="650" r="18" fill="#1b1b22" stroke="#0ea5c4"/><circle cx="1025" cy="725" r="54" fill="url(#halo)"/><circle cx="1025" cy="725" r="18" fill="#1b1b22" stroke="#0ea5c4"/></svg>
